<svg width="28" height="26" viewBox="0 0 28 26" fill="none" xmlns="http://www.w3.org/2000/svg">
<path d="M26.4446 10.3334H25.5557V5.00011C25.5557 4.76436 25.462 4.53827 25.2953 4.37157C25.1286 4.20487 24.9025 4.11122 24.6668 4.11122H3.33346C3.12298 4.11465 2.91811 4.04328 2.75533 3.9098C2.59255 3.77632 2.48243 3.5894 2.44457 3.38233V3.06233C2.48243 2.85526 2.59255 2.66834 2.75533 2.53486C2.91811 2.40139 3.12298 2.33001 3.33346 2.33344H24.2935C24.5292 2.33344 24.7553 2.23979 24.922 2.07309C25.0887 1.90639 25.1823 1.6803 25.1823 1.44455C25.1823 1.2088 25.0887 0.982713 24.922 0.816014C24.7553 0.649315 24.5292 0.555664 24.2935 0.555664H3.33346C2.62621 0.555664 1.94793 0.836616 1.44784 1.33671C0.94774 1.83681 0.666789 2.51509 0.666789 3.22233C0.66055 3.32891 0.66055 3.43576 0.666789 3.54233V21.8268C0.670278 22.3054 0.768003 22.7786 0.954384 23.2194C1.14077 23.6603 1.41215 24.0601 1.75305 24.396C2.09395 24.7319 2.49768 24.9975 2.94119 25.1774C3.3847 25.3573 3.8593 25.4481 4.3379 25.4446H24.6668C24.9025 25.4446 25.1286 25.3509 25.2953 25.1842C25.462 25.0175 25.5557 24.7914 25.5557 24.5557V19.2223H26.4446C26.6803 19.2223 26.9064 19.1287 27.0731 18.962C27.2398 18.7953 27.3335 18.5692 27.3335 18.3334V11.2223C27.3335 10.9866 27.2398 10.7605 27.0731 10.5938C26.9064 10.4271 26.6803 10.3334 26.4446 10.3334ZM23.7779 23.6668H4.3379C3.8435 23.6716 3.36722 23.4809 3.01265 23.1363C2.65808 22.7918 2.45392 22.3211 2.44457 21.8268V5.78233C2.7331 5.86595 3.03333 5.90197 3.33346 5.889H23.7779V10.3334H17.5557C16.3769 10.3334 15.2465 10.8017 14.413 11.6352C13.5795 12.4687 13.1112 13.5991 13.1112 14.7779C13.1112 15.9566 13.5795 17.0871 14.413 17.9206C15.2465 18.7541 16.3769 19.2223 17.5557 19.2223H23.7779V23.6668ZM25.5557 17.4446H17.5557C16.8484 17.4446 16.1702 17.1636 15.6701 16.6635C15.17 16.1634 14.889 15.4851 14.889 14.7779C14.889 14.0706 15.17 13.3924 15.6701 12.8923C16.1702 12.3922 16.8484 12.1112 17.5557 12.1112H25.5557V17.4446Z" fill="#8E92B8" fill-opacity="0.6"/>
</svg>
