<svg width="28" height="33" viewBox="0 0 28 33" fill="none" xmlns="http://www.w3.org/2000/svg">
<path d="M14.6736 1.39468L14.6756 1.39615C16.1887 2.46988 19.2407 4.83587 21.91 8.13221C24.5822 11.4323 26.8333 15.6179 26.8333 20.3417C26.8333 24.969 24.3598 29.0303 20.6645 31.2858C20.9869 30.4763 21.1667 29.5947 21.1667 28.6701C21.1667 25.166 19.6202 22.1899 18.0717 20.0879C16.5347 18.0013 14.9599 16.7273 14.7729 16.5936C14.5473 16.432 14.2767 16.345 13.9992 16.345C13.7216 16.345 13.451 16.432 13.2254 16.5936C13.1711 16.6325 13.1046 16.6964 13.0567 16.7429C12.9939 16.8039 12.9128 16.8857 12.8164 16.9861C12.6233 17.1872 12.3644 17.4679 12.0624 17.8152C11.4587 18.5093 10.6785 19.4742 9.90642 20.6052C8.37749 22.845 6.81872 25.8243 6.83334 28.6683C6.83441 29.5693 7.00646 30.4566 7.33498 31.2847C3.63961 29.0287 1.16667 24.9661 1.16667 20.3334C1.16667 15.7055 3.4202 11.5347 6.09779 8.2181C8.77131 4.90648 11.8268 2.49742 13.3367 1.40326L13.3367 1.40327L13.339 1.40162C13.5323 1.25989 13.7655 1.1829 14.0051 1.18166C14.2448 1.18041 14.4788 1.25497 14.6736 1.39468Z" stroke="#8E92B8"/>
</svg>
