<svg width="264" height="52" viewBox="0 0 264 52" fill="none" xmlns="http://www.w3.org/2000/svg">
<path d="M1 51L4.9697 45.5612C8.93939 40.1223 16.8788 29.2446 24.8182 25.046C32.7576 20.8474 40.697 23.3279 48.6364 22.4278C56.5758 21.5276 64.5152 17.2467 72.4545 15.5379C80.3939 13.8291 88.3333 14.6923 96.2727 16.913C104.212 19.1338 112.152 22.7122 120.091 23.6408C128.03 24.5694 135.97 22.8482 143.909 23.2722C151.848 23.6963 159.788 26.2656 167.727 23.8207C175.667 21.3759 183.606 13.9168 191.545 12.9772C199.485 12.0377 207.424 17.6177 215.364 18.1464C223.303 18.675 231.242 14.1524 239.182 10.4528C247.121 6.75316 255.061 3.87658 259.03 2.43829L263 1" stroke="url(#paint0_linear_4564_1512)" stroke-width="2"/>
<defs>
<linearGradient id="paint0_linear_4564_1512" x1="0.999939" y1="51" x2="263" y2="14.5" gradientUnits="userSpaceOnUse">
<stop stop-color="#19A0FA"/>
<stop offset="1" stop-color="#09EDE4"/>
</linearGradient>
</defs>
</svg>
