<svg width="16" height="16" viewBox="0 0 16 16" fill="none" xmlns="http://www.w3.org/2000/svg">
<path d="M8.62667 7.99995L11.8667 4.75995C11.9395 4.67493 11.9775 4.56556 11.9732 4.45371C11.9689 4.34185 11.9225 4.23575 11.8434 4.15659C11.7642 4.07744 11.6581 4.03107 11.5463 4.02675C11.4344 4.02243 11.325 4.06048 11.24 4.13329L8.00001 7.37329L4.76001 4.12884C4.67498 4.05603 4.56562 4.01798 4.45376 4.0223C4.3419 4.02662 4.2358 4.07299 4.15664 4.15215C4.07749 4.2313 4.03112 4.33741 4.0268 4.44926C4.02248 4.56112 4.06053 4.67049 4.13334 4.75551L7.37334 7.99995L4.12889 11.24C4.08237 11.2798 4.04458 11.3288 4.01791 11.384C3.99123 11.4391 3.97624 11.4992 3.97387 11.5604C3.97151 11.6216 3.98182 11.6826 4.00417 11.7397C4.02651 11.7967 4.0604 11.8485 4.10372 11.8918C4.14703 11.9351 4.19883 11.969 4.25586 11.9913C4.3129 12.0137 4.37393 12.024 4.43514 12.0216C4.49635 12.0193 4.55641 12.0043 4.61155 11.9776C4.66669 11.9509 4.71572 11.9131 4.75556 11.8666L8.00001 8.62662L11.24 11.8666C11.325 11.9394 11.4344 11.9775 11.5463 11.9732C11.6581 11.9688 11.7642 11.9225 11.8434 11.8433C11.9225 11.7642 11.9689 11.6581 11.9732 11.5462C11.9775 11.4343 11.9395 11.325 11.8667 11.24L8.62667 7.99995Z" fill="#8E92B8"/>
</svg>
