<svg width="32" height="32" viewBox="0 0 32 32" fill="none" xmlns="http://www.w3.org/2000/svg">
<path d="M16 0C7.16429 0 0 7.16429 0 16C0 24.8357 7.16429 32 16 32C24.8357 32 32 24.8357 32 16C32 7.16429 24.8357 0 16 0Z" fill="white" fill-opacity="0.1"/>
<path d="M22.9307 9.24404C21.6558 8.66908 20.2892 8.24411 18.86 8.00246C18.8473 8.00002 18.8341 8.00159 18.8223 8.00696C18.8105 8.01234 18.8007 8.02125 18.7942 8.03246C18.6192 8.33994 18.4242 8.74074 18.2875 9.05739C16.7718 8.83093 15.2309 8.83093 13.7152 9.05739C13.563 8.70646 13.3913 8.36429 13.201 8.03246C13.1946 8.02111 13.1848 8.012 13.1731 8.00634C13.1613 8.00068 13.1481 7.99875 13.1352 8.00079C11.7069 8.24244 10.3403 8.66741 9.06448 9.24321C9.0535 9.24781 9.0442 9.25566 9.03781 9.26571C6.44455 13.078 5.73374 16.796 6.0829 20.4675C6.08387 20.4765 6.08666 20.4852 6.0911 20.493C6.09554 20.5009 6.10154 20.5078 6.10873 20.5133C7.62235 21.6153 9.31059 22.4547 11.1028 22.9965C11.1152 23.0003 11.1286 23.0003 11.1411 22.9964C11.1536 22.9926 11.1646 22.985 11.1728 22.9748C11.5584 22.4591 11.9001 21.9119 12.1944 21.3391C12.1985 21.3313 12.2008 21.3226 12.2013 21.3138C12.2018 21.305 12.2003 21.2962 12.1971 21.288C12.1938 21.2797 12.1889 21.2723 12.1825 21.2662C12.1762 21.2601 12.1686 21.2554 12.1602 21.2524C11.6219 21.0497 11.1003 20.8051 10.6003 20.5208C10.5913 20.5157 10.5837 20.5084 10.5782 20.4996C10.5728 20.4908 10.5695 20.4808 10.5689 20.4705C10.5682 20.4602 10.5701 20.4499 10.5744 20.4405C10.5788 20.4311 10.5853 20.4229 10.5936 20.4166C10.6986 20.3391 10.8036 20.2583 10.9036 20.1775C10.9126 20.1702 10.9234 20.1656 10.9349 20.1641C10.9464 20.1627 10.958 20.1644 10.9686 20.1692C14.241 21.6391 17.7851 21.6391 21.0191 20.1692C21.0297 20.1641 21.0415 20.1621 21.0531 20.1635C21.0648 20.1648 21.0758 20.1694 21.085 20.1767C21.185 20.2583 21.2891 20.3391 21.395 20.4166C21.4033 20.4227 21.41 20.4308 21.4144 20.4401C21.4189 20.4495 21.421 20.4597 21.4205 20.4701C21.42 20.4804 21.4169 20.4904 21.4116 20.4993C21.4063 20.5081 21.3988 20.5155 21.39 20.5208C20.8916 20.8075 20.3733 21.0499 19.8292 21.2516C19.8208 21.2546 19.8132 21.2594 19.8068 21.2656C19.8005 21.2718 19.7955 21.2793 19.7923 21.2876C19.789 21.2959 19.7876 21.3048 19.7881 21.3136C19.7886 21.3225 19.7909 21.3312 19.795 21.3391C20.095 21.9115 20.4383 22.4565 20.8158 22.974C20.8237 22.9846 20.8346 22.9925 20.8471 22.9967C20.8596 23.0009 20.8732 23.0011 20.8858 22.9973C22.681 22.457 24.372 21.6172 25.8873 20.5133C25.8947 20.5081 25.9009 20.5014 25.9055 20.4937C25.9101 20.4859 25.913 20.4773 25.914 20.4683C26.3306 16.2236 25.2157 12.5355 22.9566 9.26738C22.951 9.25675 22.9419 9.24848 22.9307 9.24404ZM12.6835 18.2318C11.6986 18.2318 10.8861 17.341 10.8861 16.2486C10.8861 15.1553 11.6827 14.2654 12.6835 14.2654C13.6918 14.2654 14.4968 15.1628 14.481 16.2486C14.481 17.3418 13.6843 18.2318 12.6835 18.2318ZM19.3292 18.2318C18.3434 18.2318 17.5317 17.341 17.5317 16.2486C17.5317 15.1553 18.3275 14.2654 19.3292 14.2654C20.3375 14.2654 21.1425 15.1628 21.1266 16.2486C21.1266 17.3418 20.3383 18.2318 19.3292 18.2318Z" fill="white"/>
</svg>
