<svg width="42" height="42" viewBox="0 0 42 42" fill="none" xmlns="http://www.w3.org/2000/svg">
<circle cx="21" cy="21" r="19.5" stroke="#8E92B8" stroke-opacity="0.6" stroke-width="3"/>
<path d="M13 13V28.4487C13 28.6897 13.0957 28.9208 13.2662 29.0913C13.4366 29.2617 13.6677 29.3574 13.9087 29.3574H29.3574V27.5399H14.8175V13H13Z" fill="#8E92B8" fill-opacity="0.6"/>
<path d="M24.1713 23.6383C24.2557 23.7227 24.3558 23.7897 24.4661 23.8355C24.5763 23.8812 24.6945 23.9047 24.8138 23.9047C24.9332 23.9047 25.0513 23.8812 25.1616 23.8355C25.2718 23.7897 25.372 23.7227 25.4563 23.6383L30 19.0945L28.7151 17.8096L24.8138 21.7108L22.7301 19.6271C22.6457 19.5426 22.5456 19.4756 22.4354 19.4299C22.3251 19.3842 22.2069 19.3606 22.0876 19.3606C21.9682 19.3606 21.8501 19.3842 21.7398 19.4299C21.6296 19.4756 21.5294 19.5426 21.4451 19.6271L16.9014 24.1708L18.1863 25.4558L22.0876 21.5545L24.1713 23.6383Z" fill="#8E92B8" fill-opacity="0.6"/>
</svg>
