<svg width="201" height="24" viewBox="0 0 201 24" fill="none" xmlns="http://www.w3.org/2000/svg">
<path d="M0.746094 0.820312H14.9727V4.48828H6.06641V7.21875H14.3281V10.7227H6.06641V14.1094H15.2305V18H0.746094V0.820312ZM23.5391 0.820312V5.55469H26.1641V9.03516H23.5391V13.4531C23.5391 13.9844 23.5898 14.3359 23.6914 14.5078C23.8477 14.7734 24.1211 14.9062 24.5117 14.9062C24.8633 14.9062 25.3555 14.8047 25.9883 14.6016L26.3398 17.8945C25.1602 18.1523 24.0586 18.2812 23.0352 18.2812C21.8477 18.2812 20.9727 18.1289 20.4102 17.8242C19.8477 17.5195 19.4297 17.0586 19.1562 16.4414C18.8906 15.8164 18.7578 14.8086 18.7578 13.418V9.03516H17V5.55469H18.7578V3.26953L23.5391 0.820312ZM28.4492 0.820312H33.2188V7.14844C33.8672 6.47656 34.5117 5.99609 35.1523 5.70703C35.793 5.41797 36.5508 5.27344 37.4258 5.27344C38.7227 5.27344 39.7422 5.66797 40.4844 6.45703C41.2344 7.24609 41.6094 8.45703 41.6094 10.0898V18H36.8164V11.1562C36.8164 10.375 36.6719 9.82422 36.3828 9.50391C36.0938 9.17578 35.6875 9.01172 35.1641 9.01172C34.5859 9.01172 34.1172 9.23047 33.7578 9.66797C33.3984 10.1055 33.2188 10.8906 33.2188 12.0234V18H28.4492V0.820312ZM44.6211 0.820312H49.4023V18H44.6211V0.820312ZM52.625 0.820312H57.3945V4.06641H52.625V0.820312ZM52.625 5.55469H57.3945V18H52.625V5.55469ZM59.9023 5.55469H71.4453V8.34375L65.1641 14.7422H71.832V18H59.4336V14.9062L65.3867 8.8125H59.9023V5.55469ZM78.1484 9.58594L73.5898 9.10547C73.7617 8.30859 74.0078 7.68359 74.3281 7.23047C74.6562 6.76953 75.125 6.37109 75.7344 6.03516C76.1719 5.79297 76.7734 5.60547 77.5391 5.47266C78.3047 5.33984 79.1328 5.27344 80.0234 5.27344C81.4531 5.27344 82.6016 5.35547 83.4688 5.51953C84.3359 5.67578 85.0586 6.00781 85.6367 6.51562C86.043 6.86719 86.3633 7.36719 86.5977 8.01562C86.832 8.65625 86.9492 9.26953 86.9492 9.85547V15.3516C86.9492 15.9375 86.9844 16.3984 87.0547 16.7344C87.1328 17.0625 87.2969 17.4844 87.5469 18H83.0703C82.8906 17.6797 82.7734 17.4375 82.7188 17.2734C82.6641 17.1016 82.6094 16.8359 82.5547 16.4766C81.9297 17.0781 81.3086 17.5078 80.6914 17.7656C79.8477 18.1094 78.8672 18.2812 77.75 18.2812C76.2656 18.2812 75.1367 17.9375 74.3633 17.25C73.5977 16.5625 73.2148 15.7148 73.2148 14.707C73.2148 13.7617 73.4922 12.9844 74.0469 12.375C74.6016 11.7656 75.625 11.3125 77.1172 11.0156C78.9062 10.6562 80.0664 10.4062 80.5977 10.2656C81.1289 10.1172 81.6914 9.92578 82.2852 9.69141C82.2852 9.10547 82.1641 8.69531 81.9219 8.46094C81.6797 8.22656 81.2539 8.10938 80.6445 8.10938C79.8633 8.10938 79.2773 8.23438 78.8867 8.48438C78.582 8.67969 78.3359 9.04688 78.1484 9.58594ZM82.2852 12.0938C81.6289 12.3281 80.9453 12.5352 80.2344 12.7148C79.2656 12.9727 78.6523 13.2266 78.3945 13.4766C78.1289 13.7344 77.9961 14.0273 77.9961 14.3555C77.9961 14.7305 78.125 15.0391 78.3828 15.2812C78.6484 15.5156 79.0352 15.6328 79.543 15.6328C80.0742 15.6328 80.5664 15.5039 81.0195 15.2461C81.4805 14.9883 81.8047 14.6758 81.9922 14.3086C82.1875 13.9336 82.2852 13.4492 82.2852 12.8555V12.0938ZM89.8555 5.55469H94.3203V7.59375C94.75 6.71094 95.1914 6.10547 95.6445 5.77734C96.1055 5.44141 96.6719 5.27344 97.3438 5.27344C98.0469 5.27344 98.8164 5.49219 99.6523 5.92969L98.1758 9.32812C97.6133 9.09375 97.168 8.97656 96.8398 8.97656C96.2148 8.97656 95.7305 9.23438 95.3867 9.75C94.8945 10.4766 94.6484 11.8359 94.6484 13.8281V18H89.8555V5.55469ZM113.574 0.820312V18H109.109V16.1602C108.484 16.9414 107.914 17.4688 107.398 17.7422C106.711 18.1016 105.945 18.2812 105.102 18.2812C103.406 18.2812 102.109 17.6367 101.211 16.3477C100.32 15.0586 99.875 13.4922 99.875 11.6484C99.875 9.58594 100.367 8.00781 101.352 6.91406C102.344 5.82031 103.602 5.27344 105.125 5.27344C105.867 5.27344 106.539 5.39844 107.141 5.64844C107.75 5.89844 108.289 6.27344 108.758 6.77344V0.820312H113.574ZM108.793 11.7422C108.793 10.7656 108.586 10.0391 108.172 9.5625C107.758 9.07812 107.234 8.83594 106.602 8.83594C106.047 8.83594 105.582 9.06641 105.207 9.52734C104.832 9.98828 104.645 10.7617 104.645 11.8477C104.645 12.8633 104.836 13.6094 105.219 14.0859C105.609 14.5547 106.09 14.7891 106.66 14.7891C107.27 14.7891 107.777 14.5508 108.184 14.0742C108.59 13.5977 108.793 12.8203 108.793 11.7422ZM115.637 14.5547L120.371 14.1094C120.566 14.6719 120.84 15.0742 121.191 15.3164C121.543 15.5586 122.012 15.6797 122.598 15.6797C123.238 15.6797 123.734 15.543 124.086 15.2695C124.359 15.0664 124.496 14.8125 124.496 14.5078C124.496 14.1641 124.316 13.8984 123.957 13.7109C123.699 13.5781 123.016 13.4141 121.906 13.2188C120.25 12.9297 119.098 12.6641 118.449 12.4219C117.809 12.1719 117.266 11.7539 116.82 11.168C116.383 10.582 116.164 9.91406 116.164 9.16406C116.164 8.34375 116.402 7.63672 116.879 7.04297C117.355 6.44922 118.012 6.00781 118.848 5.71875C119.684 5.42188 120.805 5.27344 122.211 5.27344C123.695 5.27344 124.789 5.38672 125.492 5.61328C126.203 5.83984 126.793 6.19141 127.262 6.66797C127.738 7.14453 128.133 7.78906 128.445 8.60156L123.922 9.04688C123.805 8.64844 123.609 8.35547 123.336 8.16797C122.961 7.91797 122.508 7.79297 121.977 7.79297C121.438 7.79297 121.043 7.89062 120.793 8.08594C120.551 8.27344 120.43 8.50391 120.43 8.77734C120.43 9.08203 120.586 9.3125 120.898 9.46875C121.211 9.625 121.891 9.76562 122.938 9.89062C124.523 10.0703 125.703 10.3203 126.477 10.6406C127.25 10.9609 127.84 11.418 128.246 12.0117C128.66 12.6055 128.867 13.2578 128.867 13.9688C128.867 14.6875 128.648 15.3867 128.211 16.0664C127.781 16.7461 127.098 17.2891 126.16 17.6953C125.23 18.0938 123.961 18.293 122.352 18.293C120.078 18.293 118.457 17.9688 117.488 17.3203C116.527 16.6719 115.91 15.75 115.637 14.5547ZM139.484 0.820312H144.793V13.7695H153.078V18H139.484V0.820312ZM154.59 11.8125C154.59 9.91406 155.23 8.35156 156.512 7.125C157.793 5.89062 159.523 5.27344 161.703 5.27344C164.195 5.27344 166.078 5.99609 167.352 7.44141C168.375 8.60547 168.887 10.0391 168.887 11.7422C168.887 13.6562 168.25 15.2266 166.977 16.4531C165.711 17.6719 163.957 18.2812 161.715 18.2812C159.715 18.2812 158.098 17.7734 156.863 16.7578C155.348 15.5 154.59 13.8516 154.59 11.8125ZM159.371 11.8008C159.371 12.9102 159.594 13.7305 160.039 14.2617C160.492 14.793 161.059 15.0586 161.738 15.0586C162.426 15.0586 162.988 14.7969 163.426 14.2734C163.871 13.75 164.094 12.9102 164.094 11.7539C164.094 10.6758 163.871 9.875 163.426 9.35156C162.98 8.82031 162.43 8.55469 161.773 8.55469C161.078 8.55469 160.504 8.82422 160.051 9.36328C159.598 9.89453 159.371 10.707 159.371 11.8008ZM179.844 5.55469H184.309V17.3086L184.32 17.8594C184.32 18.6406 184.152 19.3828 183.816 20.0859C183.488 20.7969 183.047 21.3711 182.492 21.8086C181.945 22.2461 181.246 22.5625 180.395 22.7578C179.551 22.9531 178.582 23.0508 177.488 23.0508C174.988 23.0508 173.27 22.6758 172.332 21.9258C171.402 21.1758 170.938 20.1719 170.938 18.9141C170.938 18.7578 170.945 18.5469 170.961 18.2812L175.59 18.8086C175.707 19.2383 175.887 19.5352 176.129 19.6992C176.48 19.9414 176.922 20.0625 177.453 20.0625C178.141 20.0625 178.652 19.8789 178.988 19.5117C179.332 19.1445 179.504 18.5039 179.504 17.5898V15.7031C179.035 16.2578 178.566 16.6602 178.098 16.9102C177.363 17.3008 176.57 17.4961 175.719 17.4961C174.055 17.4961 172.711 16.7695 171.688 15.3164C170.961 14.2852 170.598 12.9219 170.598 11.2266C170.598 9.28906 171.066 7.8125 172.004 6.79688C172.941 5.78125 174.168 5.27344 175.684 5.27344C176.652 5.27344 177.449 5.4375 178.074 5.76562C178.707 6.09375 179.297 6.63672 179.844 7.39453V5.55469ZM175.355 11.5898C175.355 12.4883 175.547 13.1562 175.93 13.5938C176.312 14.0234 176.816 14.2383 177.441 14.2383C178.035 14.2383 178.531 14.0156 178.93 13.5703C179.336 13.1172 179.539 12.4375 179.539 11.5312C179.539 10.625 179.328 9.93359 178.906 9.45703C178.484 8.97266 177.969 8.73047 177.359 8.73047C176.75 8.73047 176.262 8.95312 175.895 9.39844C175.535 9.83594 175.355 10.5664 175.355 11.5898ZM186.605 11.8125C186.605 9.91406 187.246 8.35156 188.527 7.125C189.809 5.89062 191.539 5.27344 193.719 5.27344C196.211 5.27344 198.094 5.99609 199.367 7.44141C200.391 8.60547 200.902 10.0391 200.902 11.7422C200.902 13.6562 200.266 15.2266 198.992 16.4531C197.727 17.6719 195.973 18.2812 193.73 18.2812C191.73 18.2812 190.113 17.7734 188.879 16.7578C187.363 15.5 186.605 13.8516 186.605 11.8125ZM191.387 11.8008C191.387 12.9102 191.609 13.7305 192.055 14.2617C192.508 14.793 193.074 15.0586 193.754 15.0586C194.441 15.0586 195.004 14.7969 195.441 14.2734C195.887 13.75 196.109 12.9102 196.109 11.7539C196.109 10.6758 195.887 9.875 195.441 9.35156C194.996 8.82031 194.445 8.55469 193.789 8.55469C193.094 8.55469 192.52 8.82422 192.066 9.36328C191.613 9.89453 191.387 10.707 191.387 11.8008Z" fill="white"/>
</svg>
