<svg width="21" height="21" viewBox="0 0 21 21" fill="none" xmlns="http://www.w3.org/2000/svg">
<path d="M1.3125 2.625C1.3125 2.2769 1.45078 1.94306 1.69692 1.69692C1.94306 1.45078 2.2769 1.3125 2.625 1.3125H5.25C5.5981 1.3125 5.93194 1.45078 6.17808 1.69692C6.42422 1.94306 6.5625 2.2769 6.5625 2.625V5.25C6.5625 5.5981 6.42422 5.93194 6.17808 6.17808C5.93194 6.42422 5.5981 6.5625 5.25 6.5625H2.625C2.2769 6.5625 1.94306 6.42422 1.69692 6.17808C1.45078 5.93194 1.3125 5.5981 1.3125 5.25V2.625ZM7.875 2.625C7.875 2.2769 8.01328 1.94306 8.25942 1.69692C8.50556 1.45078 8.8394 1.3125 9.1875 1.3125H11.8125C12.1606 1.3125 12.4944 1.45078 12.7406 1.69692C12.9867 1.94306 13.125 2.2769 13.125 2.625V5.25C13.125 5.5981 12.9867 5.93194 12.7406 6.17808C12.4944 6.42422 12.1606 6.5625 11.8125 6.5625H9.1875C8.8394 6.5625 8.50556 6.42422 8.25942 6.17808C8.01328 5.93194 7.875 5.5981 7.875 5.25V2.625ZM14.4375 2.625C14.4375 2.2769 14.5758 1.94306 14.8219 1.69692C15.0681 1.45078 15.4019 1.3125 15.75 1.3125H18.375C18.7231 1.3125 19.0569 1.45078 19.3031 1.69692C19.5492 1.94306 19.6875 2.2769 19.6875 2.625V5.25C19.6875 5.5981 19.5492 5.93194 19.3031 6.17808C19.0569 6.42422 18.7231 6.5625 18.375 6.5625H15.75C15.4019 6.5625 15.0681 6.42422 14.8219 6.17808C14.5758 5.93194 14.4375 5.5981 14.4375 5.25V2.625ZM1.3125 9.1875C1.3125 8.8394 1.45078 8.50556 1.69692 8.25942C1.94306 8.01328 2.2769 7.875 2.625 7.875H5.25C5.5981 7.875 5.93194 8.01328 6.17808 8.25942C6.42422 8.50556 6.5625 8.8394 6.5625 9.1875V11.8125C6.5625 12.1606 6.42422 12.4944 6.17808 12.7406C5.93194 12.9867 5.5981 13.125 5.25 13.125H2.625C2.2769 13.125 1.94306 12.9867 1.69692 12.7406C1.45078 12.4944 1.3125 12.1606 1.3125 11.8125V9.1875ZM7.875 9.1875C7.875 8.8394 8.01328 8.50556 8.25942 8.25942C8.50556 8.01328 8.8394 7.875 9.1875 7.875H11.8125C12.1606 7.875 12.4944 8.01328 12.7406 8.25942C12.9867 8.50556 13.125 8.8394 13.125 9.1875V11.8125C13.125 12.1606 12.9867 12.4944 12.7406 12.7406C12.4944 12.9867 12.1606 13.125 11.8125 13.125H9.1875C8.8394 13.125 8.50556 12.9867 8.25942 12.7406C8.01328 12.4944 7.875 12.1606 7.875 11.8125V9.1875ZM14.4375 9.1875C14.4375 8.8394 14.5758 8.50556 14.8219 8.25942C15.0681 8.01328 15.4019 7.875 15.75 7.875H18.375C18.7231 7.875 19.0569 8.01328 19.3031 8.25942C19.5492 8.50556 19.6875 8.8394 19.6875 9.1875V11.8125C19.6875 12.1606 19.5492 12.4944 19.3031 12.7406C19.0569 12.9867 18.7231 13.125 18.375 13.125H15.75C15.4019 13.125 15.0681 12.9867 14.8219 12.7406C14.5758 12.4944 14.4375 12.1606 14.4375 11.8125V9.1875ZM1.3125 15.75C1.3125 15.4019 1.45078 15.0681 1.69692 14.8219C1.94306 14.5758 2.2769 14.4375 2.625 14.4375H5.25C5.5981 14.4375 5.93194 14.5758 6.17808 14.8219C6.42422 15.0681 6.5625 15.4019 6.5625 15.75V18.375C6.5625 18.7231 6.42422 19.0569 6.17808 19.3031C5.93194 19.5492 5.5981 19.6875 5.25 19.6875H2.625C2.2769 19.6875 1.94306 19.5492 1.69692 19.3031C1.45078 19.0569 1.3125 18.7231 1.3125 18.375V15.75ZM7.875 15.75C7.875 15.4019 8.01328 15.0681 8.25942 14.8219C8.50556 14.5758 8.8394 14.4375 9.1875 14.4375H11.8125C12.1606 14.4375 12.4944 14.5758 12.7406 14.8219C12.9867 15.0681 13.125 15.4019 13.125 15.75V18.375C13.125 18.7231 12.9867 19.0569 12.7406 19.3031C12.4944 19.5492 12.1606 19.6875 11.8125 19.6875H9.1875C8.8394 19.6875 8.50556 19.5492 8.25942 19.3031C8.01328 19.0569 7.875 18.7231 7.875 18.375V15.75ZM14.4375 15.75C14.4375 15.4019 14.5758 15.0681 14.8219 14.8219C15.0681 14.5758 15.4019 14.4375 15.75 14.4375H18.375C18.7231 14.4375 19.0569 14.5758 19.3031 14.8219C19.5492 15.0681 19.6875 15.4019 19.6875 15.75V18.375C19.6875 18.7231 19.5492 19.0569 19.3031 19.3031C19.0569 19.5492 18.7231 19.6875 18.375 19.6875H15.75C15.4019 19.6875 15.0681 19.5492 14.8219 19.3031C14.5758 19.0569 14.4375 18.7231 14.4375 18.375V15.75Z" fill="white"/>
</svg>
