<svg width="21" height="21" viewBox="0 0 21 21" fill="none" xmlns="http://www.w3.org/2000/svg">
<path d="M1.3125 3.28125C1.3125 2.75911 1.51992 2.25835 1.88913 1.88913C2.25835 1.51992 2.75911 1.3125 3.28125 1.3125H7.21875C7.74089 1.3125 8.24165 1.51992 8.61087 1.88913C8.98008 2.25835 9.1875 2.75911 9.1875 3.28125V7.21875C9.1875 7.74089 8.98008 8.24165 8.61087 8.61087C8.24165 8.98008 7.74089 9.1875 7.21875 9.1875H3.28125C2.75911 9.1875 2.25835 8.98008 1.88913 8.61087C1.51992 8.24165 1.3125 7.74089 1.3125 7.21875V3.28125ZM11.8125 3.28125C11.8125 2.75911 12.0199 2.25835 12.3891 1.88913C12.7583 1.51992 13.2591 1.3125 13.7812 1.3125H17.7188C18.2409 1.3125 18.7417 1.51992 19.1109 1.88913C19.4801 2.25835 19.6875 2.75911 19.6875 3.28125V7.21875C19.6875 7.74089 19.4801 8.24165 19.1109 8.61087C18.7417 8.98008 18.2409 9.1875 17.7188 9.1875H13.7812C13.2591 9.1875 12.7583 8.98008 12.3891 8.61087C12.0199 8.24165 11.8125 7.74089 11.8125 7.21875V3.28125ZM1.3125 13.7812C1.3125 13.2591 1.51992 12.7583 1.88913 12.3891C2.25835 12.0199 2.75911 11.8125 3.28125 11.8125H7.21875C7.74089 11.8125 8.24165 12.0199 8.61087 12.3891C8.98008 12.7583 9.1875 13.2591 9.1875 13.7812V17.7188C9.1875 18.2409 8.98008 18.7417 8.61087 19.1109C8.24165 19.4801 7.74089 19.6875 7.21875 19.6875H3.28125C2.75911 19.6875 2.25835 19.4801 1.88913 19.1109C1.51992 18.7417 1.3125 18.2409 1.3125 17.7188V13.7812ZM11.8125 13.7812C11.8125 13.2591 12.0199 12.7583 12.3891 12.3891C12.7583 12.0199 13.2591 11.8125 13.7812 11.8125H17.7188C18.2409 11.8125 18.7417 12.0199 19.1109 12.3891C19.4801 12.7583 19.6875 13.2591 19.6875 13.7812V17.7188C19.6875 18.2409 19.4801 18.7417 19.1109 19.1109C18.7417 19.4801 18.2409 19.6875 17.7188 19.6875H13.7812C13.2591 19.6875 12.7583 19.4801 12.3891 19.1109C12.0199 18.7417 11.8125 18.2409 11.8125 17.7188V13.7812Z" fill="#8E92B8"/>
</svg>
