<svg width="42" height="42" viewBox="0 0 42 42" fill="none" xmlns="http://www.w3.org/2000/svg">
<circle cx="21" cy="21" r="19.5" stroke="#8E92B8" stroke-opacity="0.6" stroke-width="3"/>
<path d="M13 23.7143C13 23.4301 13.1129 23.1576 13.3138 22.9567C13.5147 22.7557 13.7873 22.6429 14.0714 22.6429H16.2143C16.4984 22.6429 16.771 22.7557 16.9719 22.9567C17.1728 23.1576 17.2857 23.4301 17.2857 23.7143V26.9286C17.2857 27.2127 17.1728 27.4853 16.9719 27.6862C16.771 27.8871 16.4984 28 16.2143 28H14.0714C13.7873 28 13.5147 27.8871 13.3138 27.6862C13.1129 27.4853 13 27.2127 13 26.9286V23.7143ZM18.3571 19.4286C18.3571 19.1444 18.47 18.8719 18.671 18.671C18.8719 18.47 19.1444 18.3571 19.4286 18.3571H21.5714C21.8556 18.3571 22.1281 18.47 22.329 18.671C22.53 18.8719 22.6429 19.1444 22.6429 19.4286V26.9286C22.6429 27.2127 22.53 27.4853 22.329 27.6862C22.1281 27.8871 21.8556 28 21.5714 28H19.4286C19.1444 28 18.8719 27.8871 18.671 27.6862C18.47 27.4853 18.3571 27.2127 18.3571 26.9286V19.4286ZM23.7143 14.0714C23.7143 13.7873 23.8272 13.5147 24.0281 13.3138C24.229 13.1129 24.5016 13 24.7857 13H26.9286C27.2127 13 27.4853 13.1129 27.6862 13.3138C27.8871 13.5147 28 13.7873 28 14.0714V26.9286C28 27.2127 27.8871 27.4853 27.6862 27.6862C27.4853 27.8871 27.2127 28 26.9286 28H24.7857C24.5016 28 24.229 27.8871 24.0281 27.6862C23.8272 27.4853 23.7143 27.2127 23.7143 26.9286V14.0714Z" fill="#8E92B8" fill-opacity="0.6"/>
</svg>
