<svg width="32" height="32" viewBox="0 0 32 32" fill="none" xmlns="http://www.w3.org/2000/svg">
<path d="M16 0C7.16429 0 0 7.16429 0 16C0 24.8357 7.16429 32 16 32C24.8357 32 32 24.8357 32 16C32 7.16429 24.8357 0 16 0Z" fill="white" fill-opacity="0.1"/>
<path d="M7.17335 17.1373L7.24135 17.0293L11.4053 10.5173C11.4193 10.4959 11.4387 10.4787 11.4616 10.4673C11.4845 10.456 11.5101 10.451 11.5355 10.4529C11.561 10.4549 11.5855 10.4636 11.6065 10.4782C11.6274 10.4928 11.6441 10.5128 11.6547 10.536C12.348 12.0947 12.9507 14.0333 12.668 15.24C12.5507 15.736 12.2213 16.408 11.8493 17.0293C11.8016 17.1202 11.7496 17.2088 11.6933 17.2947C11.6799 17.3138 11.6619 17.3293 11.6409 17.3398C11.62 17.3503 11.5968 17.3554 11.5733 17.3547H7.29735C7.27182 17.3551 7.24667 17.3485 7.22456 17.3358C7.20245 17.323 7.1842 17.3045 7.17176 17.2822C7.15932 17.26 7.15314 17.2347 7.15389 17.2092C7.15464 17.1837 7.16228 17.1589 7.17601 17.1373H7.17335ZM25.7253 19.3773C25.7257 19.4058 25.7176 19.4337 25.7022 19.4577C25.6868 19.4816 25.6647 19.5005 25.6387 19.512C25.3147 19.6493 24.212 20.1587 23.7533 20.7947C22.5827 22.424 21.6893 24.7547 19.6893 24.7547H11.3507C10.6466 24.7536 9.94969 24.6138 9.29969 24.3433C8.64969 24.0728 8.05936 23.6768 7.56246 23.1781C7.06555 22.6793 6.6718 22.0875 6.4037 21.4365C6.13561 20.7855 5.99844 20.088 6.00001 19.384V19.288C6.00001 19.2107 6.06401 19.1467 6.14401 19.1467H10.7907C10.884 19.1467 10.9507 19.2307 10.944 19.3227C10.9093 19.624 10.9667 19.9347 11.1107 20.216C11.3853 20.776 11.9587 21.1253 12.576 21.1253H14.8773V19.3293H12.6C12.5733 19.3291 12.5472 19.3215 12.5245 19.3075C12.5018 19.2935 12.4834 19.2735 12.4712 19.2498C12.4589 19.226 12.4534 19.1994 12.4552 19.1728C12.457 19.1462 12.4661 19.1205 12.4813 19.0987L12.5653 18.9787C12.7787 18.6707 13.0867 18.1973 13.3933 17.656C13.6013 17.2907 13.804 16.9013 13.9667 16.5093C13.9987 16.44 14.024 16.3667 14.0533 16.296C14.0973 16.1707 14.1427 16.0533 14.1747 15.9373C14.2061 15.839 14.235 15.7398 14.2613 15.64C14.3373 15.3067 14.3693 14.9547 14.3693 14.5907C14.3693 14.4467 14.364 14.296 14.3507 14.1547C14.344 13.9987 14.324 13.8413 14.3053 13.6853C14.2904 13.5458 14.2691 13.4069 14.2413 13.2693C14.2055 13.0598 14.1619 12.8517 14.1107 12.6453L14.092 12.5653C14.052 12.4213 14.0173 12.2853 13.972 12.1427C13.8451 11.7045 13.6991 11.2721 13.5347 10.8467C13.4774 10.6866 13.4142 10.5287 13.3453 10.3733C13.2493 10.136 13.1507 9.92134 13.0613 9.72C13.0169 9.63375 12.9751 9.54615 12.936 9.45734C12.8926 9.36152 12.8469 9.26682 12.7987 9.17334C12.7667 9.10267 12.728 9.03467 12.7027 8.97067L12.4213 8.45334C12.3827 8.38267 12.4467 8.296 12.524 8.31867L14.284 8.79467H14.2973L14.528 8.86134L14.784 8.93334L14.8773 8.95867V7.91467C14.8773 7.40934 15.28 7 15.7827 7C15.9014 6.99968 16.0189 7.02338 16.1282 7.06967C16.2375 7.11595 16.3363 7.18387 16.4187 7.26934C16.5889 7.44105 16.6847 7.67287 16.6853 7.91467V9.46667L16.8733 9.51867C16.8867 9.52534 16.9027 9.532 16.9147 9.54134C16.96 9.57334 17.0267 9.624 17.1107 9.688C17.1773 9.73867 17.248 9.80267 17.3307 9.87067C17.594 10.0852 17.8493 10.3093 18.096 10.5427C18.3813 10.808 18.7013 11.1187 19.008 11.464C19.0947 11.5627 19.1773 11.6587 19.264 11.7653C19.3467 11.8707 19.44 11.9733 19.5173 12.0747C19.6227 12.2133 19.7307 12.3573 19.8307 12.5067C19.8747 12.5773 19.9293 12.6507 19.9707 12.7213C20.0987 12.9107 20.208 13.1053 20.3133 13.3013C20.3587 13.3907 20.4027 13.4893 20.4413 13.5853C20.56 13.848 20.6533 14.1133 20.7107 14.3827C20.7297 14.4398 20.7426 14.4988 20.7493 14.5587V14.572C20.768 14.648 20.7747 14.732 20.7813 14.8173C20.8189 15.2114 20.7707 15.609 20.64 15.9827C20.5987 16.0947 20.56 16.2093 20.5093 16.3213C20.4093 16.548 20.2947 16.7787 20.1573 16.9907C20.112 17.0707 20.0573 17.1533 20.0067 17.2333C19.9493 17.3173 19.888 17.3973 19.8373 17.4733C19.764 17.5743 19.6871 17.6726 19.6067 17.768C19.536 17.864 19.4653 17.96 19.3853 18.0467C19.2773 18.1773 19.172 18.3 19.0587 18.4173C18.9947 18.4947 18.9253 18.5747 18.8507 18.644C18.7813 18.724 18.7067 18.7947 18.6427 18.8587C18.5307 18.9707 18.4427 19.0547 18.3653 19.128L18.1827 19.2907C18.1572 19.3162 18.1227 19.3306 18.0867 19.3307H16.6853V21.1253H18.448C18.8413 21.1253 19.216 20.9867 19.52 20.728C19.6227 20.6387 20.0733 20.248 20.608 19.6587C20.6254 19.6386 20.6488 19.6246 20.6747 19.6187L25.5413 18.2093C25.5627 18.2032 25.5852 18.202 25.6071 18.206C25.629 18.21 25.6497 18.219 25.6675 18.2323C25.6853 18.2456 25.6998 18.2628 25.7099 18.2827C25.7199 18.3025 25.7252 18.3244 25.7253 18.3467V19.3773Z" fill="white"/>
</svg>
