<svg width="42" height="42" viewBox="0 0 42 42" fill="none" xmlns="http://www.w3.org/2000/svg">
<circle cx="21" cy="21" r="19.5" stroke="#8E92B8" stroke-opacity="0.6" stroke-width="3"/>
<path d="M21.5 12C19.8189 12 18.1755 12.4985 16.7777 13.4325C15.3798 14.3665 14.2904 15.694 13.647 17.2472C13.0037 18.8004 12.8354 20.5094 13.1633 22.1583C13.4913 23.8071 14.3008 25.3217 15.4896 26.5104C16.6783 27.6992 18.1929 28.5087 19.8417 28.8367C21.4906 29.1646 23.1996 28.9963 24.7528 28.353C26.306 27.7096 27.6335 26.6202 28.5675 25.2223C29.5015 23.8245 30 22.1811 30 20.5C29.9974 18.2464 29.1011 16.0859 27.5076 14.4924C25.9141 12.8989 23.7536 12.0026 21.5 12ZM28.7554 19.8935H25.0882C24.9871 19.2851 24.7326 18.7125 24.349 18.2297C23.9653 17.7469 23.465 17.3697 22.8953 17.1337C22.3255 16.8977 21.705 16.8107 21.0923 16.8809C20.4796 16.951 19.8949 17.1761 19.3932 17.5347L16.8007 14.9422C17.8203 14.0767 19.0588 13.509 20.38 13.3017C21.7012 13.0944 23.0541 13.2555 24.2897 13.7672C25.5254 14.2789 26.596 15.1214 27.3838 16.2021C28.1717 17.2829 28.6462 18.5599 28.7554 19.8929V19.8935ZM21.5 22.9286C21.0197 22.9286 20.5501 22.7861 20.1508 22.5193C19.7514 22.2524 19.4401 21.8731 19.2563 21.4294C19.0725 20.9856 19.0244 20.4973 19.1181 20.0262C19.2118 19.5551 19.4431 19.1224 19.7827 18.7827C20.1224 18.4431 20.5551 18.2118 21.0262 18.1181C21.4973 18.0244 21.9856 18.0725 22.4294 18.2563C22.8731 18.4401 23.2524 18.7514 23.5193 19.1508C23.7861 19.5501 23.9286 20.0197 23.9286 20.5C23.9278 21.1438 23.6716 21.7611 23.2164 22.2164C22.7611 22.6716 22.1439 22.9278 21.5 22.9286ZM14.2143 20.5C14.2137 18.778 14.8263 17.1121 15.9422 15.8007L18.5347 18.3932C18.1764 18.8949 17.9517 19.4796 17.8817 20.0922C17.8116 20.7047 17.8987 21.325 18.1345 21.8946C18.3704 22.4643 18.7474 22.9645 19.2299 23.3483C19.7125 23.732 20.2847 23.9867 20.8929 24.0882V27.7554C19.0734 27.6018 17.3778 26.7712 16.1412 25.4278C14.9045 24.0844 14.2169 22.3259 14.2143 20.5ZM22.1071 27.7554V24.0882C22.8515 23.9611 23.5381 23.606 24.0721 23.0721C24.606 22.5381 24.9611 21.8515 25.0882 21.1071H28.7554C28.6099 22.8216 27.8628 24.4294 26.6461 25.6461C25.4294 26.8628 23.8216 27.6099 22.1071 27.7554Z" fill="#8E92B8" fill-opacity="0.6"/>
</svg>
