<svg width="42" height="42" viewBox="0 0 42 42" fill="none" xmlns="http://www.w3.org/2000/svg">
<circle cx="21" cy="21" r="19.5" stroke="#8E92B8" stroke-opacity="0.6" stroke-width="3"/>
<path d="M13 25.6656V27C13 28.1031 15.6875 29 19 29C22.3125 29 25 28.1031 25 27V25.6656C23.7094 26.575 21.35 27 19 27C16.65 27 14.2906 26.575 13 25.6656ZM23 17C26.3125 17 29 16.1031 29 15C29 13.8969 26.3125 13 23 13C19.6875 13 17 13.8969 17 15C17 16.1031 19.6875 17 23 17ZM13 22.3875V24C13 25.1031 15.6875 26 19 26C22.3125 26 25 25.1031 25 24V22.3875C23.7094 23.45 21.3469 24 19 24C16.6531 24 14.2906 23.45 13 22.3875ZM26 22.7312C27.7906 22.3844 29 21.7406 29 21V19.6656C28.275 20.1781 27.2094 20.5281 26 20.7438V22.7312ZM19 18C15.6875 18 13 19.1188 13 20.5C13 21.8813 15.6875 23 19 23C22.3125 23 25 21.8813 25 20.5C25 19.1188 22.3125 18 19 18ZM25.8531 19.7594C27.7281 19.4219 29 18.7594 29 18V16.6656C27.8906 17.45 25.9844 17.8719 23.9781 17.9719C24.9 18.4188 25.5781 19.0188 25.8531 19.7594Z" fill="#8E92B8" fill-opacity="0.6"/>
</svg>
