<svg width="32" height="32" viewBox="0 0 32 32" fill="none" xmlns="http://www.w3.org/2000/svg">
<path d="M16 0C7.16429 0 0 7.16429 0 16C0 24.8357 7.16429 32 16 32C24.8357 32 32 24.8357 32 16C32 7.16429 24.8357 0 16 0Z" fill="white" fill-opacity="0.1"/>
<path d="M26 10.0165C25.2645 10.3573 24.4744 10.5875 23.6438 10.6916C24.5008 10.1554 25.142 9.31147 25.4477 8.3173C24.6425 8.81738 23.7612 9.16939 22.8422 9.35801C22.2242 8.66807 21.4057 8.21076 20.5136 8.05709C19.6216 7.90343 18.706 8.06199 17.909 8.50817C17.1119 8.95435 16.4781 9.66319 16.1058 10.5246C15.7336 11.3861 15.6437 12.3519 15.8503 13.2722C14.2187 13.1865 12.6226 12.7431 11.1655 11.9708C9.70847 11.1984 8.42301 10.1143 7.39258 8.78884C7.04025 9.42432 6.83766 10.1611 6.83766 10.9458C6.83727 11.6522 7.00364 12.3477 7.32201 12.9708C7.64038 13.5938 8.10091 14.1251 8.66273 14.5174C8.01117 14.4957 7.37397 14.3116 6.80419 13.9804V14.0357C6.80413 15.0264 7.13189 15.9867 7.73186 16.7535C8.33184 17.5203 9.16707 18.0465 10.0958 18.2427C9.4914 18.4138 8.85769 18.439 8.24258 18.3164C8.50462 19.1689 9.01506 19.9143 9.70243 20.4484C10.3898 20.9825 11.2197 21.2785 12.0759 21.2949C10.6224 22.4879 8.82735 23.1351 6.97948 23.1322C6.65215 23.1323 6.32509 23.1123 6 23.0724C7.87569 24.3334 10.0591 25.0026 12.2891 25C19.8378 25 23.9644 18.4629 23.9644 12.7933C23.9644 12.6091 23.96 12.423 23.9521 12.2388C24.7548 11.6319 25.4476 10.8803 25.9982 10.0193L26 10.0165Z" fill="white"/>
</svg>
