<svg width="42" height="42" viewBox="0 0 42 42" fill="none" xmlns="http://www.w3.org/2000/svg">
<circle cx="21" cy="21" r="19.5" stroke="#8E92B8" stroke-opacity="0.6" stroke-width="3"/>
<path d="M17.4 19.2C17.0687 18.7594 16.4406 18.6687 16 19C15.5594 19.3313 15.4688 19.9594 15.8 20.4L16.9906 21.9875C17.1406 22.1875 17.1188 22.4656 16.9437 22.6406L16.5437 23.0406C16.3344 23.25 15.9938 23.2344 15.8063 23.0063L13 19.6375V15C13 14.4469 12.5531 14 12 14C11.4469 14 11 14.4469 11 15V21.825C11 22.1656 11.1156 22.4969 11.3281 22.7625L14.5812 26.9594C14.7375 27.1625 14.8438 27.3938 14.9062 27.6375C14.9625 27.8531 15.1594 28 15.3844 28H19.5C19.775 28 20 27.775 20 27.5V24C20 23.1344 19.7188 22.2938 19.2 21.6L17.4 19.2ZM30 14C29.4469 14 29 14.4469 29 15V19.6375L26.1938 23.0063C26.0063 23.2313 25.6625 23.2469 25.4563 23.0406L25.0562 22.6406C24.8812 22.4656 24.8594 22.1875 25.0094 21.9875L26.2 20.4C26.5312 19.9594 26.4406 19.3313 26 19C25.5594 18.6687 24.9313 18.7594 24.6 19.2L22.8 21.6C22.2812 22.2938 22 23.1344 22 24V27.5C22 27.775 22.225 28 22.5 28H26.6156C26.8375 28 27.0375 27.8531 27.0938 27.6375C27.1562 27.3938 27.2625 27.1625 27.4188 26.9594L30.6719 22.7625C30.8844 22.4969 31 22.1656 31 21.825V15C31 14.4469 30.5531 14 30 14Z" fill="#8E92B8" fill-opacity="0.6"/>
</svg>
