<?xml version="1.0" standalone="no"?>
<!DOCTYPE svg PUBLIC "-//W3C//DTD SVG 20010904//EN"
 "http://www.w3.org/TR/2001/REC-SVG-20010904/DTD/svg10.dtd">
<svg version="1.0" xmlns="http://www.w3.org/2000/svg"
 width="512.000000pt" height="512.000000pt" viewBox="0 0 512.000000 512.000000"
 preserveAspectRatio="xMidYMid meet">

<g transform="translate(0.000000,512.000000) scale(0.100000,-0.100000)"
fill="#000000" stroke="none">
<path d="M2315 4609 c-791 -100 -1453 -641 -1703 -1394 -71 -212 -102 -412
-102 -650 0 -319 63 -605 194 -880 308 -646 911 -1078 1626 -1165 109 -13 361
-13 470 0 710 86 1317 519 1621 1155 130 272 187 514 196 826 8 272 -21 479
-99 714 -252 759 -915 1298 -1718 1395 -100 12 -385 11 -485 -1z m537 -408
c336 -58 632 -214 884 -465 251 -252 404 -542 466 -886 29 -161 29 -409 0
-570 -62 -344 -215 -634 -466 -886 -252 -251 -542 -404 -886 -466 -161 -29
-409 -29 -570 0 -344 62 -634 215 -886 466 -251 251 -401 537 -466 884 -29
161 -30 408 0 572 41 229 127 440 259 640 106 159 294 347 453 453 367 243
782 331 1212 258z"/>
<path d="M1967 2922 l-597 -597 159 -159 160 -160 442 438 441 438 67 -63 c36
-35 236 -233 443 -439 l378 -375 160 160 160 160 -597 597 c-329 329 -602 598
-608 598 -6 0 -279 -269 -608 -598z"/>
</g>
</svg>
