<?xml version="1.0" standalone="no"?>
<!DOCTYPE svg PUBLIC "-//W3C//DTD SVG 20010904//EN"
 "http://www.w3.org/TR/2001/REC-SVG-20010904/DTD/svg10.dtd">
<svg version="1.0" xmlns="http://www.w3.org/2000/svg"
 width="337.000000pt" height="337.000000pt" viewBox="0 0 337.000000 337.000000"
 preserveAspectRatio="xMidYMid meet">

<g transform="translate(0.000000,337.000000) scale(0.100000,-0.100000)"
fill="#000000" stroke="none">
<path d="M1539 3360 c-672 -64 -1246 -521 -1447 -1151 -63 -197 -76 -283 -77
-514 0 -181 3 -226 23 -324 115 -568 495 -1028 1025 -1241 222 -89 429 -125
677 -117 326 10 604 98 865 271 445 297 715 754 754 1276 30 404 -88 811 -328
1131 -309 411 -770 652 -1286 673 -66 2 -159 1 -206 -4z m608 -1527 c326 -420
438 -572 438 -591 l0 -27 -889 -3 c-901 -2 -916 -2 -916 33 0 13 874 1145 893
1157 5 3 16 4 23 1 7 -2 209 -259 451 -570z"/>
<path d="M1300 1804 c-212 -273 -389 -502 -393 -510 -7 -12 109 -14 778 -14
481 0 785 4 783 9 -3 9 -778 1011 -781 1011 -1 0 -175 -223 -387 -496z"/>
</g>
</svg>
